PathFileType	4	(X/Y/Z)	C:\Users\86182\Documents\cortex\Trimmed_M1_H16.trc
DataRate	CameraRate	NumFrames	NumMarkers	Units	OrigDataRate	OrigDataStartFrame	OrigNumFrames
100.00	100.00	       101	2	mm	100.00	1	       901
Frame#	Time	gripper			box			
		X1	Y1	Z1	X2	Y2	Z2	

1	0.000	229.00131	206.29378	182.50082	236.31538	204.69856	41.47095	
2	0.010	229.00159	206.29391	182.50070	236.33669	204.69525	41.45835	
3	0.020	229.00203	206.29411	182.50060	236.35457	204.69247	41.44776	
4	0.030	229.00226	206.29420	182.50069	236.36720	204.69052	41.44029	
5	0.040	229.00217	206.29414	182.50101	236.37572	204.68919	41.43526	
6	0.050	229.00217	206.29413	182.50119	236.38239	204.68816	41.43132	
7	0.060	229.00325	206.29466	182.50047	236.38802	204.68727	41.42799	
8	0.070	229.00626	206.29619	182.49815	236.39159	204.68672	41.42591	
9	0.080	229.01093	206.29854	182.49451	236.39177	204.68669	41.42582	
10	0.090	229.01563	206.30090	182.49081	236.38789	204.68729	41.42813	
11	0.100	229.01860	206.30241	182.48833	236.37997	204.68851	41.43284	
12	0.110	229.01915	206.30273	182.48737	236.36852	204.69029	41.43963	
13	0.120	229.01775	206.30209	182.48759	236.35440	204.69249	41.44795	
14	0.130	229.01534	206.30093	182.48857	236.33910	204.69489	41.45693	
15	0.140	229.01242	206.29953	182.49016	236.32430	204.69722	41.46553	
16	0.150	229.00903	206.29785	182.49239	236.31099	204.69934	41.47315	
17	0.160	229.00533	206.29599	182.49516	236.29984	204.70117	41.47940	
18	0.170	229.00174	206.29417	182.49820	236.29201	204.70250	41.48359	
19	0.180	228.99878	206.29265	182.50098	236.28828	204.70320	41.48532	
20	0.190	228.99693	206.29169	182.50281	236.28734	204.70345	41.48550	
21	0.200	228.99635	206.29140	182.50320	236.28673	204.70357	41.48574	
22	0.210	228.99692	206.29173	182.50221	236.28510	204.70378	41.48690	
23	0.220	228.99869	206.29266	182.50014	236.28278	204.70403	41.48870	
24	0.230	229.00204	206.29439	182.49719	236.28065	204.70422	41.49043	
25	0.240	229.00725	206.29698	182.49339	236.27921	204.70436	41.49165	
26	0.250	229.01405	206.30035	182.48874	236.27907	204.70433	41.49189	
27	0.260	229.02144	206.30403	182.48364	236.28185	204.70393	41.49014	
28	0.270	229.02783	206.30721	182.47920	236.28926	204.70288	41.48539	
29	0.280	229.03180	206.30916	182.47659	236.30101	204.70120	41.47784	
30	0.290	229.03314	206.30980	182.47609	236.31456	204.69931	41.46907	
31	0.300	229.03305	206.30969	182.47682	236.32689	204.69759	41.46105	
32	0.310	229.03287	206.30956	182.47758	236.33612	204.69627	41.45512	
33	0.320	229.03331	206.30977	182.47754	236.34116	204.69553	41.45205	
34	0.330	229.03458	206.31042	182.47629	236.34048	204.69559	41.45260	
35	0.340	229.03630	206.31136	182.47401	236.33295	204.69672	41.45722	
36	0.350	229.03745	206.31206	182.47171	236.31956	204.69878	41.46520	
37	0.360	229.03697	206.31192	182.47055	236.30365	204.70125	41.47464	
38	0.370	229.03456	206.31081	182.47115	236.28902	204.70346	41.48347	
39	0.380	229.03061	206.30888	182.47346	236.27864	204.70496	41.49004	
40	0.390	229.02577	206.30646	182.47696	236.27397	204.70552	41.49343	
41	0.400	229.02087	206.30400	182.48080	236.27394	204.70535	41.49409	
42	0.410	229.01671	206.30190	182.48413	236.27591	204.70491	41.49344	
43	0.420	229.01375	206.30040	182.48640	236.27843	204.70442	41.49231	
44	0.430	229.01196	206.29953	182.48755	236.28191	204.70383	41.49046	
45	0.440	229.01126	206.29921	182.48767	236.28745	204.70294	41.48727	
46	0.450	229.01167	206.29945	182.48682	236.29593	204.70161	41.48226	
47	0.460	229.01334	206.30031	182.48521	236.30730	204.69986	41.47554	
48	0.470	229.01599	206.30165	182.48323	236.32019	204.69785	41.46791	
49	0.480	229.01907	206.30318	182.48120	236.33237	204.69597	41.46069	
50	0.490	229.02211	206.30467	182.47922	236.34174	204.69455	41.45502	
51	0.500	229.02489	206.30605	182.47739	236.34769	204.69371	41.45120	
52	0.510	229.02716	206.30714	182.47610	236.35100	204.69333	41.44873	
53	0.520	229.02835	206.30768	182.47601	236.35201	204.69337	41.44740	
54	0.530	229.02766	206.30724	182.47775	236.34995	204.69392	41.44773	
55	0.540	229.02467	206.30562	182.48158	236.34419	204.69507	41.45020	
56	0.550	229.02005	206.30318	182.48677	236.33549	204.69664	41.45451	
57	0.560	229.01546	206.30075	182.49181	236.32567	204.69833	41.45967	
58	0.570	229.01244	206.29913	182.49535	236.31674	204.69983	41.46452	
59	0.580	229.01166	206.29869	182.49666	236.31036	204.70085	41.46815	
60	0.590	229.01292	206.29932	182.49580	236.30780	204.70119	41.46992	
61	0.600	229.01512	206.30046	182.49361	236.31006	204.70064	41.46931	
62	0.610	229.01695	206.30145	182.49132	236.31715	204.69926	41.46613	
63	0.620	229.01744	206.30177	182.48999	236.32733	204.69742	41.46115	
64	0.630	229.01625	206.30122	182.49005	236.33791	204.69556	41.45571	
65	0.640	229.01376	206.30005	182.49117	236.34711	204.69402	41.45071	
66	0.650	229.01128	206.29884	182.49236	236.35399	204.69295	41.44667	
67	0.660	229.01027	206.29839	182.49246	236.35741	204.69250	41.44431	
68	0.670	229.01176	206.29918	182.49075	236.35606	204.69286	41.44452	
69	0.680	229.01595	206.30133	182.48712	236.34933	204.69406	41.44793	
70	0.690	229.02232	206.30453	182.48209	236.33768	204.69595	41.45454	
71	0.700	229.02971	206.30823	182.47672	236.32283	204.69821	41.46346	
72	0.710	229.03667	206.31166	182.47215	236.30753	204.70047	41.47299	
73	0.720	229.04182	206.31418	182.46927	236.29480	204.70229	41.48108	
74	0.730	229.04436	206.31538	182.46832	236.28722	204.70334	41.48604	
75	0.740	229.04437	206.31534	182.46889	236.28662	204.70334	41.48674	
76	0.750	229.04286	206.31456	182.47020	236.29376	204.70216	41.48274	
77	0.760	229.04102	206.31364	182.47150	236.30701	204.70007	41.47507	
78	0.770	229.03969	206.31300	182.47229	236.32249	204.69763	41.46600	
79	0.780	229.03928	206.31281	182.47238	236.33643	204.69547	41.45782	
80	0.790	229.03993	206.31316	182.47165	236.34610	204.69394	41.45217	
81	0.800	229.04129	206.31386	182.47031	236.35014	204.69328	41.44988	
82	0.810	229.04250	206.31448	182.46910	236.34885	204.69345	41.45078	
83	0.820	229.04253	206.31451	182.46886	236.34399	204.69417	41.45378	
84	0.830	229.04062	206.31358	182.47009	236.33809	204.69507	41.45739	
85	0.840	229.03688	206.31172	182.47258	236.33328	204.69579	41.46031	
86	0.850	229.03261	206.30962	182.47537	236.33089	204.69615	41.46178	
87	0.860	229.02930	206.30798	182.47751	236.33090	204.69614	41.46179	
88	0.870	229.02734	206.30701	182.47885	236.33194	204.69598	41.46120	
89	0.880	229.02579	206.30621	182.48016	236.33206	204.69597	41.46112	
90	0.890	229.02327	206.30495	182.48228	236.33063	204.69618	41.46197	
91	0.900	229.01906	206.30283	182.48544	236.32834	204.69655	41.46332	
92	0.910	229.01337	206.30000	182.48932	236.32648	204.69684	41.46442	
93	0.920	229.00723	206.29700	182.49316	236.32658	204.69682	41.46435	
94	0.930	229.00192	206.29440	182.49622	236.32990	204.69630	41.46238	
95	0.940	228.99843	206.29272	182.49799	236.33615	204.69534	41.45869	
96	0.950	228.99721	206.29214	182.49843	236.34315	204.69424	41.45454	
97	0.960	228.99828	206.29268	182.49762	236.34787	204.69351	41.45175	
98	0.970	229.00099	206.29401	182.49597	236.34805	204.69348	41.45165	
99	0.980	229.00438	206.29565	182.49402	236.34352	204.69417	41.45435	
100	0.990	229.00768	206.29726	182.49214	236.33632	204.69528	41.45863	
101	1.000	229.01036	206.29858	182.49054	236.32977	204.69629	41.46252	
